<?xml version="1.0" encoding="UTF-8" standalone="no"?>
<svg width="24px" height="24px" viewBox="0 0 24 24" version="1.1" xmlns="http://www.w3.org/2000/svg" xmlns:xlink="http://www.w3.org/1999/xlink" xmlns:sketch="http://www.bohemiancoding.com/sketch/ns">
    <!-- Generator: Sketch 3.0.4 (8053) - http://www.bohemiancoding.com/sketch -->
    <title>icon-dowload</title>
    <desc>Created with Sketch.</desc>
    <defs></defs>
    <g id="Homepage" stroke="none" stroke-width="1" fill="none" fill-rule="evenodd" sketch:type="MSPage">
        <g id="icon-dowload" sketch:type="MSLayerGroup" fill="#FFFFFF">
            <path d="M12,0 C5.38330435,0 0,5.38278261 0,12 C0,18.6172174 5.38330435,24 12,24 C18.6166957,24 24,18.6172174 24,12 C24,5.38278261 18.6166957,0 12,0 L12,0 Z M12,22.9565217 C5.95826087,22.9565217 1.04347826,18.0412174 1.04347826,12 C1.04347826,5.95878261 5.95826087,1.04347826 12,1.04347826 C18.0417391,1.04347826 22.9565217,5.95878261 22.9565217,12 C22.9565217,18.0412174 18.0417391,22.9565217 12,22.9565217 L12,22.9565217 Z" id="Fill-1604" sketch:type="MSShapeGroup"></path>
            <path d="M17.3702609,12.6746087 L12.5217391,17.5231304 L12.5217391,5.2173913 C12.5217391,4.92886957 12.288,4.69565217 12,4.69565217 C11.712,4.69565217 11.4782609,4.92886957 11.4782609,5.2173913 L11.4782609,17.5231304 L6.62973913,12.6746087 C6.42573913,12.4706087 6.096,12.4706087 5.892,12.6746087 C5.688,12.8786087 5.688,13.2083478 5.892,13.4123478 L11.6306087,19.1509565 C11.6791304,19.1994783 11.7365217,19.2375652 11.8006957,19.2641739 C11.8643478,19.2907826 11.9321739,19.3043478 12,19.3043478 C12.0678261,19.3043478 12.1356522,19.2907826 12.1993043,19.2641739 C12.2634783,19.2375652 12.3213913,19.1994783 12.3693913,19.1509565 L18.108,13.4123478 C18.312,13.2083478 18.312,12.8786087 18.108,12.6746087 C17.904,12.4706087 17.5742609,12.4706087 17.3702609,12.6746087" id="Fill-1605" sketch:type="MSShapeGroup"></path>
        </g>
    </g>
</svg>