<?xml version="1.0" encoding="utf-8"?>
<!-- Generator: Adobe Illustrator 17.0.0, SVG Export Plug-In . SVG Version: 6.00 Build 0)  -->
<!DOCTYPE svg PUBLIC "-//W3C//DTD SVG 1.1//EN" "http://www.w3.org/Graphics/SVG/1.1/DTD/svg11.dtd">
<svg version="1.1" id="Calque_1" xmlns="http://www.w3.org/2000/svg" xmlns:xlink="http://www.w3.org/1999/xlink" x="0px" y="0px"
	 width="318.467px" height="80.922px" viewBox="0 0 318.467 80.922" enable-background="new 0 0 318.467 80.922"
	 xml:space="preserve">
<g>
	<path fill="#FFFFFF" d="M83.399,10.563c0.99-0.81,1.44-1.529,1.44-2.609c0-4.59-4.23-8.01-8.1-8.01c-1.71,0-3.6,0.54-4.41,2.25
		c-8.1,11.249-26.188,41.849-34.559,52.648c-0.45,0.359-0.9,0.539-1.26,0.539s-0.54-0.18-0.54-0.63c0-0.18,0-0.27,0.09-0.54
		c1.709-4.59,4.77-16.469,12.869-28.349c0.9-0.72,1.35-1.44,1.35-2.52c0-2.79-3.51-7.38-6.93-7.38c-1.08,0-2.16,0.45-3.15,1.71
		c-8.1,11.249-18.089,29.969-26.459,40.769c-0.45,0.359-0.9,0.54-1.26,0.54c-0.36,0-0.54-0.181-0.54-0.63c0-0.181,0-0.271,0.09-0.54
		c2.52-6.75,15.839-31.949,22.859-41.398c0.54-0.631,1.08-1.351,1.08-2.341c0-3.869-6.479-6.659-9.81-6.659
		c-1.98,0-4.77,0.72-5.49,3.149c-5.94,20.34-20.879,48.778-20.879,57.868c0,4.32,4.59,9.989,8.819,9.989
		c1.53,0,3.06-0.81,4.32-2.699c6.39-9.99,11.16-20.34,18-29.52c-2.25,7.2-4.14,14.49-4.86,21.42c0,4.409,4.59,5.939,8.55,5.939
		c2.43,0,4.59-0.63,5.22-1.439C47.581,60.062,60.99,30.363,83.399,10.563z"/>
	<path fill="#FFFFFF" d="M82.062,60.361c1.04-1.92,3.6-5.521,3.6-7.521s-2.48-2.32-3.44-2.32c-1.12,0-2.56,0.721-2.88,0.721
		c-0.16,0-0.16-0.08-0.16-0.32c0-0.64,0.48-2.16,0.48-3.521c0-4.399-2.96-5.04-5.52-5.04c-13.601,0-24.96,18.321-24.96,27.681
		c0,3.2,1.36,5.44,4.4,5.44c1.6,0,6.32-1.28,11.52-6.48c4.48-4.479,9.041-8.96,9.601-8.96c0.16,0,0.32,0.08,0.32,0.24
		s-0.08,0.32-0.32,0.72c-0.32,0.48-6.48,10.16-6.48,15.2c0,1.921,0.72,4.641,4.48,4.721c0,0,3.2,0,3.2-2.641
		c0-0.64-0.16-1.12-0.16-1.439C75.742,72.842,78.702,66.521,82.062,60.361z M74.062,53.961c-6.24,4.16-13.76,13.601-16.4,13.601
		c-0.64,0-0.88-0.48-0.88-1.2c0-4,7.92-16.721,15.2-16.721c2.08,0,2.64,1.841,2.64,3.681C74.622,53.321,74.542,53.641,74.062,53.961
		z"/>
	<path fill="#FFFFFF" d="M128.421,65.241c-2.56,0-4.08,4.4-9.76,4.4c-3.68,0-4.8-2.32-4.8-4.32c0-1.76,0.72-1.76,0.72-1.76
		c12.88-0.24,21.121-8.96,21.121-15.121c0-3.439-2.56-6.08-8.24-6.08c-9.174,0-16.489,7.037-19.814,14.659
		c-1.974,2.413-3.777,4.58-4.737,5.673c-3.96,5.04-8.64,8.55-10.08,9.449c-1.17,0.72-2.07,1.08-2.61,1.08
		c-0.72,0-0.99-0.54-0.99-1.439c0-5.13,12.78-25.739,22.409-40.589c13.319-0.359,29.609-1.35,29.609-4.68c0-0.72-0.9-1.08-0.9-1.439
		c0-0.181,0.271-0.36,1.261-0.45c2.52-1.44,4.319-2.07,4.319-2.43c0-0.181-0.63-0.36-3.96-0.54c-6.12,0-15.119,0.359-24.479,0.63
		c0.9-1.44,1.8-2.7,2.52-3.78c0.36-0.54,0.63-1.35,0.63-2.16c0-3.06-4.41-6.39-7.109-6.39c-1.53,0-3.51,0.45-4.32,2.521
		c-0.72,1.979-2.52,5.579-4.95,10.079c-4.77,0-9.359-0.18-13.229-0.54c-0.54,0-1.17,1.299-1.17,3.099c0,2.7,1.44,5.888,7.2,5.888
		h2.52C91.66,46,81.94,64.98,81.94,71.55c0,4.05,4.86,8.621,8.64,8.621c0.9,0,3.62-0.234,4.34-0.774
		c3.047-2.422,7.855-7.673,10.955-11.612c0.75,4.724,4.01,8.169,10.466,8.169c9.84,0,14.32-5.356,14.32-8.476
		C130.661,66.197,129.941,65.241,128.421,65.241z M125.781,48.041c0,0,2,0,2,1.84c0,3.36-5.6,8.32-11.68,8.32
		c-0.32,0-0.4-0.32-0.4-0.48C115.701,55.801,121.061,48.041,125.781,48.041z"/>
	<path fill="#FFFFFF" d="M161.581,42.921c-6.08,0-11.44,6.24-11.44,6.24c-0.24,0.32-0.48,0.399-0.56,0.399
		c-0.24,0-0.24-0.479-0.24-0.479c0.48-1.36,0.64-2.4,0.64-3.12c0-2.16-1.68-2.96-3.6-2.96c-2.72,0-4.72,1.12-4.72,2.399
		c0,0.721,0.72,1.681,0.72,2.801c0,1.6-0.64,5.12-6.4,14.88c0.08-0.16-5.2,9.04-5.2,10.48c0,0.96,0.32,1.92,2.56,1.92
		c1.52,0,4.64-0.16,5.92-2.96c1.84-4.16,6.081-12.48,12.8-18.881c1.92-1.84,3.68-2.96,5.2-2.96c0.72,0,1.52,0.32,1.52,1.36
		c0,2.64-2.48,3.76-2.48,6.08c0,0.72,0.16,2.561,3.12,2.561c4,0,7.12-6.32,7.12-11.44C166.541,45.801,165.101,42.921,161.581,42.921
		z"/>
	<path fill="#FFFFFF" d="M216.898,63.562c12.881-0.24,21.121-8.96,21.121-15.121c0-3.439-2.561-6.08-8.24-6.08
		c-9.19,0-16.514,7.062-19.831,14.698c-1.526,1.862-2.904,3.518-3.653,4.37c-2.941,3.382-4.484,4.852-5.219,5.514
		c-0.589,0.589-1.25,1.029-1.765,1.029c-0.441,0-0.809-0.367-0.809-1.249c0-0.736,0.221-1.765,0.809-3.382
		c0.956-2.72,6.47-8.969,8.749-11.983c0.661-0.882,0.882-1.692,0.882-2.5c0-2.646-3.088-4.632-5.808-4.852
		c-1.912,0.736-6.837,6.837-10.807,11.763c-0.515,0.221-0.882,0.294-1.103,0.294c-0.147,0-0.221-0.074-0.221-0.221
		c0-0.367,0.515-1.103,1.764-3.381c0.294-0.442,0.368-1.029,0.368-1.692c0-2.352-1.617-5.44-3.529-5.44
		c-0.368,0-0.735,0.147-1.177,0.442c-3.823,2.867-12.572,13.527-14.116,13.527c-0.074,0-0.147-0.073-0.147-0.22
		c0-1.25,7.132-10.44,9.043-12.058c1.102-0.882,1.47-1.764,1.47-2.573c0-2.279-3.235-4.411-5.073-4.411
		c-5.735,0-16.468,25.732-16.468,31.025c0,3.308,3.529,6.102,5.219,6.102c0.809,0,1.397-0.441,1.764-1.47
		c1.177-3.382,9.484-16.762,12.646-16.762c0.221,0,0.442,0.074,0.588,0.221c0,0-4.705,7.352-4.705,12.057
		c0,1.985,2.794,3.455,4.926,3.455c1.029,0,1.911-0.367,2.206-1.177c4.19-10.366,7.425-13.453,7.866-13.453l0.074,0.074
		c-1.249,2.867-1.764,5.514-1.764,7.719c0,3.97,1.764,6.617,4.558,6.617c2.927,0,7.093-2.917,11.554-10.121
		c-0.031,0.419-0.052,0.834-0.052,1.242c0,5.84,3.2,10.4,10.641,10.4c9.84,0,14.32-5.36,14.32-8.48c0-1.28-0.721-2.24-2.24-2.24
		c-2.561,0-4.08,4.4-9.761,4.4c-3.68,0-4.8-2.32-4.8-4.32C216.179,63.562,216.898,63.562,216.898,63.562z M228.099,48.041
		c0,0,2,0,2,1.84c0,3.36-5.6,8.32-11.68,8.32c-0.32,0-0.4-0.32-0.4-0.48C218.019,55.801,223.379,48.041,228.099,48.041z"/>
	<path fill="#FFFFFF" d="M318.415,47.666c-0.564-5.974-5.206-5.777-6.64-5.642c-6.77,0.639-12.605,7.78-12.741,8.034
		s-0.367,0.356-0.447,0.364c-0.08,0.008-0.167-0.065-0.182-0.224c-0.008-0.08-0.015-0.159,0.05-0.326
		c0.855-2.009,0.936-3.705,0.831-4.819c-0.316-3.345-2.504-3.541-4.018-3.398c-1.195,0.113-3.88,0.608-3.556,4.033
		c0.083,0.878,0.045,1.793-0.077,2.734c-2.658,0.706-8.161,2.419-9.305,2.419c-0.239,0-0.239-0.24-0.239-0.399
		c0.079-0.561,0.079-0.96,0.079-1.36c0-4.721-3.84-6.4-7.76-6.4c-7.877,0-14.206,5.641-17.69,12.267
		c-1.197,1.446-2.227,2.672-2.87,3.405c-4.229,5.399-8.46,8.909-9.449,9.629c-0.271,0.181-0.45,0.271-0.631,0.271
		c-0.539,0-0.81-0.63-0.81-1.44c0-0.63,0.18-1.35,0.36-1.89c5.579-13.59,18.809-34.739,27.539-47.969
		c0.359-0.539,0.63-1.35,0.63-2.159c0-3.061-4.41-6.39-7.11-6.39c-1.529,0-3.51,0.449-4.319,2.52
		c-3.24,8.46-25.199,44.099-25.199,54.448c0,4.14,3.42,10.8,7.29,10.8c0.81,0,1.8-0.36,2.609-1.08
		c2.63-2.215,6.216-6.557,9.043-10.247c-0.021,0.349-0.033,0.696-0.033,1.037c0,5.6,2.721,10,9.2,10
		c1.44,0,13.921-0.16,20.161-17.681c0.239-0.8,0.239-1.6,0.88-1.68c1.424-0.243,3.655-0.699,5.724-1.469
		c-1.007,2.542-2.238,5.146-3.323,7.69c-1.645,3.851-5.306,11.028-5.148,12.701c0.045,0.477,0.446,1.324,2.596,1.121
		c1.434-0.135,4.605-0.596,5.615-3.504c3.356-9.558,12.431-22.388,18.962-23.005c0.558-0.053,2.006-0.029,2.157,1.564
		c0.414,4.381-7.229,16.192-6.635,22.484c0.218,2.31,1.506,4.036,5.09,3.698c1.991-0.188,4.166-1.84,4.03-3.273
		c-0.075-0.796-0.867-1.526-0.98-2.72C311.571,66.232,319.16,55.551,318.415,47.666z M276.889,52.281c0,0-2.641,0.8-2.881,3.28
		c0,1.199,0.801,1.84,0.801,2.8c0,2.32-2.48,10.88-9.2,10.88c-2.881,0-4.08-2.16-4.08-4.96c0-5.92,5.359-15.12,12.08-15.12
		c1.84,0,3.6,1.04,3.6,2.64C277.208,51.801,277.128,52.121,276.889,52.281z"/>
</g>
</svg>
